<svg id="Capa_1" enable-background="new 0 0 512 512" height="512" viewBox="0 0 512 512" width="512" xmlns="http://www.w3.org/2000/svg"><g><g><g><path d="m256 43.501c-88.366 0-160 71.634-160 160v15.245h320v-15.246c0-88.365-71.634-159.999-160-159.999z" fill="#e1ac9a"/></g></g><g><path d="m193.67 159.44c-5.117-13.177-4.585-32.781 12.33-41.94v-66.02c-63.876 20.997-110 81.118-110 152.02v15.245h97.67z" fill="#d69a8a"/></g><g><path d="m374.737 480.707c-11.054-55.475-60.014-97.282-118.738-97.282s-107.684 41.808-118.738 97.282c-2.456 12.324 7.076 23.793 19.643 23.793h76.57l22.526-17.16 22.524 17.16h76.57c12.566 0 22.098-11.469 19.643-23.793z" fill="#565e75"/></g><g><g><path d="m276.005 385.077c-6.509-1.083-13.191-1.653-20.007-1.653-58.724 0-107.684 41.808-118.738 97.282-2.456 12.324 7.076 23.793 19.643 23.793h18.021c-.001-60.056 43.729-109.89 101.081-119.422z" fill="#404656"/></g></g><g><path d="m278.524 504.5h-45.052l-37.474-134.521h120z" fill="#fae0bd"/></g><g><path d="m223 432.78-15.173-58.167h96.334l-15.161 58.167z" fill="#f4baae"/></g><g><path d="m287.585 459.581c27.323-23.708 32.641-62.417 32.726-84.968h-16.15l-48.167 58.167 16.663 24.867c3.367 5.026 10.36 5.898 14.928 1.934z" fill="#fbf1cf"/></g><g><path d="m224.403 459.581c-27.323-23.708-32.64-62.417-32.726-84.968h16.15l48.167 58.167-16.663 24.867c-3.367 5.026-10.36 5.898-14.928 1.934z" fill="#fbf1cf"/></g><g><circle cx="401.129" cy="251.131" fill="#ffcabd" r="36.081"/></g><g><circle cx="110.871" cy="251.131" fill="#f4baae" r="36.081"/></g><g><path d="m176.066 160.636c-43.661 9.683-60.613 54.714-60.613 54.714-2.905 11.445-4.453 23.43-4.453 35.779 0 80.081 64.919 145 145 145s145-64.919 145-145c0-12.348-1.548-24.334-4.453-35.779-121.334-19.669-176.82-64.397-220.481-54.714z" fill="#ffdcce"/></g><g><path d="m160.998 251.128c0-34.784 12.253-66.703 32.672-91.688-6.141-.391-11.973-.053-17.604 1.196-43.661 9.683-60.613 54.714-60.613 54.714-2.905 11.445-4.453 23.43-4.453 35.779 0 80.081 64.919 145 145 145 8.526 0 16.877-.742 24.999-2.154-68.167-11.848-120.001-71.291-120.001-142.847z" fill="#ffcabd"/></g><g><path d="m386 117.5h-260c-11.046 0-20-8.954-20-20v-70h300v70c0 11.046-8.954 20-20 20z" fill="#565e75"/></g><g><path d="m186 97.5v-70h-80v70c0 11.046 8.954 20 20 20h80c-11.046 0-20-8.954-20-20z" fill="#404656"/></g><g><path d="m446 47.5h-380c-11.046 0-20-8.954-20-20 0-11.046 8.954-20 20-20h380c11.046 0 20 8.954 20 20 0 11.046-8.954 20-20 20z" fill="#6e768f"/></g><g><path d="m166 27.5c0-11.046 8.954-20 20-20h-120c-11.046 0-20 8.954-20 20 0 11.046 8.954 20 20 20h120c-11.046 0-20-8.954-20-20z" fill="#565e75"/></g><g><g><g><ellipse cx="172.932" cy="278.081" fill="#e68a97" rx="30.65" ry="24.408"/></g><g><ellipse cx="339.068" cy="277.924" fill="#e68a97" rx="30.65" ry="24.408"/></g></g><g><path d="m190.759 259.73c-6.251 0-12.196-2.703-16.313-7.419-2.725-3.12-2.403-7.858.717-10.582 3.121-2.724 7.859-2.403 10.582.717 1.268 1.452 3.095 2.284 5.013 2.284h.006c1.92-.002 3.748-.838 5.015-2.294 2.719-3.125 7.457-3.454 10.581-.736 3.125 2.719 3.455 7.456.736 10.581-4.112 4.728-10.06 7.443-16.317 7.449-.007 0-.014 0-.02 0z"/></g><g><path d="m321.167 259.607c-6.25 0-12.195-2.703-16.312-7.419-2.725-3.12-2.403-7.858.717-10.582 3.121-2.725 7.858-2.404 10.582.717 1.268 1.452 3.095 2.284 5.013 2.284h.006c1.92-.002 3.749-.838 5.016-2.294 2.719-3.125 7.456-3.454 10.581-.735s3.454 7.456.735 10.581c-4.114 4.728-10.062 7.443-16.318 7.449-.006-.001-.013-.001-.02-.001z"/></g><g><path d="m256 271.253c-8.477 0-16.539-3.671-22.118-10.073-2.722-3.123-2.396-7.86.726-10.582s7.86-2.397 10.582.726c2.73 3.132 6.67 4.928 10.811 4.928s8.081-1.796 10.811-4.928c2.721-3.124 7.459-3.448 10.582-.726s3.448 7.459.726 10.582c-5.581 6.402-13.643 10.073-22.12 10.073z"/></g></g><path d="m446 0h-380c-15.164 0-27.5 12.336-27.5 27.5s12.336 27.5 27.5 27.5h32.5v42.5c0 9.474 4.816 17.844 12.127 22.792-14.485 25.26-22.127 53.849-22.127 83.208v10.247c-12.695 7.625-21.21 21.527-21.21 37.384 0 23.699 19.017 43.026 42.591 43.556 5.684 19.061 15.056 36.979 27.708 52.549 2.612 3.214 7.336 3.702 10.551 1.09 3.214-2.612 3.703-7.335 1.09-10.55-19.816-24.387-30.73-55.158-30.73-86.647 0-11.314 1.381-22.571 4.104-33.465 1.642-4 17.958-41.471 55.085-49.705 20.009-4.437 44.49 4.386 78.373 16.597 34.125 12.299 76.368 27.523 134.327 37.375 2.065 9.554 3.11 19.354 3.11 29.198 0 75.818-61.682 137.5-137.5 137.5-31.488 0-62.26-10.914-86.647-30.73-3.214-2.612-7.938-2.124-10.55 1.091-2.612 3.214-2.124 7.938 1.091 10.55 7.714 6.268 16.004 11.729 24.723 16.34.246 3.32.624 6.987 1.183 10.896-28.888 18.862-49.16 48.67-55.895 82.467-1.604 8.047.471 16.312 5.692 22.676 5.257 6.408 13.022 10.083 21.306 10.083h198.191c8.284 0 16.049-3.675 21.306-10.083 5.221-6.364 7.295-14.628 5.691-22.675-6.735-33.8-27.01-63.61-55.903-82.472.56-3.914.938-7.585 1.183-10.909 35.708-18.992 63.012-51.762 74.779-91.174 23.559-.547 42.558-19.867 42.558-43.555 0-15.857-8.515-29.758-21.21-37.384v-10.25c0-29.355-7.641-57.949-22.127-83.209 7.311-4.948 12.127-13.318 12.127-22.791v-42.5h32.503c15.164 0 27.5-12.336 27.5-27.5s-12.336-27.5-27.5-27.5zm-174.992 402.89-15.014 18.131-15.029-18.149c4.983.497 10 .756 15.035.756 5.064 0 10.07-.254 15.008-.738zm1.82 94.11h-33.659l-7.647-27.449c.614-.017 1.23-.056 1.845-.139 4.962-.664 9.407-3.43 12.194-7.589l10.432-15.569 10.432 15.569c2.787 4.16 7.232 6.926 12.194 7.589.619.083 1.237.123 1.854.139zm-54.685-98.169 28.505 34.423-13.548 20.219c-.511.764-1.218 1.004-1.721 1.071-.432.061-1.277.054-2.062-.627-19.415-16.847-26.44-42.154-28.89-60.801 5.782 2.26 11.698 4.17 17.716 5.715zm-70.95 93.572c-2.36-2.877-3.3-6.606-2.578-10.23 5.55-27.849 21.516-52.635 44.366-69.367 3.977 15.451 11.163 32.318 24.017 46.145l10.6 38.049h-66.695c-3.774 0-7.313-1.675-9.71-4.597zm220.188-10.23c.723 3.625-.217 7.353-2.577 10.23-2.396 2.921-5.936 4.597-9.709 4.597h-66.695l10.603-38.062c12.847-13.826 20.03-30.689 24.005-46.137 22.854 16.732 38.823 41.52 44.373 69.372zm-84.711-28.256c-.785.681-1.629.687-2.062.627-.502-.067-1.209-.308-1.721-1.071l-13.548-20.219 28.461-34.37c6.071-1.554 11.997-3.474 17.755-5.734-2.454 18.646-9.482 43.931-28.885 60.767zm-200.38-202.786c0-14.136 10.318-25.901 23.817-28.177-1.73 9.26-2.607 18.7-2.607 28.174 0 9.497.902 18.933 2.648 28.186-13.519-2.258-23.858-14.033-23.858-28.183zm323.589 28.179c1.714-9.137 2.621-18.555 2.621-28.181 0-9.475-.877-18.914-2.607-28.174 13.499 2.276 23.817 14.04 23.817 28.177 0 14.14-10.325 25.908-23.831 28.178zm2.621-75.81v4.685c-2.398-.41-4.858-.636-7.371-.636-1.458 0-2.924.087-4.373.231-58.632-9.599-101.295-24.971-135.607-37.337-36.258-13.068-62.454-22.509-86.707-17.13-38.432 8.523-57.599 41.371-63.755 54.241-2.449.01-4.848.231-7.187.631v-4.685c0-27.81 7.52-54.86 21.759-78.519.247.007.492.019.741.019h260c.248 0 .493-.012.739-.019 14.239 23.659 21.761 50.712 21.761 78.519zm37.5-163.5h-109.824c-4.142 0-7.5 3.358-7.5 7.5s3.358 7.5 7.5 7.5h62.324v42.5c0 6.893-5.607 12.5-12.5 12.5h-260c-6.893 0-12.5-5.607-12.5-12.5v-42.5h192.676c4.142 0 7.5-3.358 7.5-7.5s-3.358-7.5-7.5-7.5h-240.176c-6.893 0-12.5-5.607-12.5-12.5s5.607-12.5 12.5-12.5h380c6.893 0 12.5 5.607 12.5 12.5s-5.607 12.5-12.5 12.5z"/></g></svg>